<?xml version="1.0" standalone="no"?>
<!DOCTYPE svg PUBLIC "-//W3C//DTD SVG 20010904//EN"
 "http://www.w3.org/TR/2001/REC-SVG-20010904/DTD/svg10.dtd">
<svg version="1.0" xmlns="http://www.w3.org/2000/svg"
 width="256.000000pt" height="256.000000pt" viewBox="0 0 256.000000 256.000000"
 preserveAspectRatio="xMidYMid meet">

<g transform="translate(0.000000,256.000000) scale(0.100000,-0.100000)"
fill="#000000" stroke="none">
<path d="M1486 2325 c-22 -8 -50 -25 -63 -38 l-25 -24 2 -571 1 -572 -319 0
-318 0 -85 31 c-74 28 -97 32 -194 33 -91 1 -116 -2 -138 -17 -36 -23 -52 -64
-38 -94 10 -22 9 -23 -37 -23 -106 0 -162 -38 -162 -111 0 -26 8 -47 24 -66
l24 -28 624 -5 623 -5 -2 -38 c-3 -46 -36 -108 -72 -135 -14 -10 -141 -69
-282 -130 -140 -61 -268 -116 -283 -123 -55 -25 -74 -111 -34 -148 12 -12 38
-24 57 -28 20 -4 237 -8 482 -8 l445 0 42 27 c73 49 76 60 80 340 l4 248 302
2 301 3 0 435 0 435 -157 3 c-152 2 -157 2 -168 -19 -9 -15 -10 -97 -5 -300
l8 -279 -141 0 -140 0 6 573 5 573 -28 22 c-15 12 -50 29 -78 37 -63 19 -209
19 -261 0z m260 -80 l36 -15 -6 -152 c-3 -84 -8 -504 -12 -933 -6 -861 -2
-813 -70 -841 -29 -12 -97 -14 -417 -9 -419 6 -487 10 -487 28 0 7 128 68 285
136 304 132 339 154 381 239 18 35 19 76 19 784 0 567 3 750 12 759 31 31 190
33 259 4z m629 -965 l0 -365 -267 -3 -268 -2 0 65 0 65 163 0 c113 0 167 4
175 12 9 9 12 91 12 305 l0 294 93 -3 92 -3 0 -365z m-1715 -206 l65 -29 343
-3 343 -3 -3 -62 -3 -62 -605 0 -605 0 -3 22 c-4 28 8 31 159 36 63 2 125 9
137 16 56 30 48 92 -15 110 -34 9 -29 10 42 7 60 -3 96 -11 145 -32z"/>
</g>
</svg>
